<svg xmlns="http://www.w3.org/2000/svg" version="1.1" xmlns:xlink="http://www.w3.org/1999/xlink" xmlns:svgjs="http://svgjs.dev/svgjs" width="1500" height="1500" viewBox="0 0 1500 1500"><rect width="1500" height="1500" fill="#c56e33"></rect><g transform="matrix(0.6666666666666666,0,0,0.6666666666666666,250,437.6666666666667)"><svg viewBox="0 0 512 320" data-background-color="#c56e33" preserveAspectRatio="xMidYMid meet" height="937" width="1500" xmlns="http://www.w3.org/2000/svg" xmlns:xlink="http://www.w3.org/1999/xlink"><g id="tight-bounds" transform="matrix(1,0,0,1,0,0)"><svg viewBox="0 0 512 320" height="320" width="512"><g><svg></svg></g><g><svg viewBox="0 0 512 320" height="320" width="512"><g><path d="M96 160c0-88.366 71.634-160 160-160 88.366 0 160 71.634 160 160 0 88.366-71.634 160-160 160-88.366 0-160-71.634-160-160zM256 312.425c84.182 0 152.425-68.243 152.425-152.425 0-84.182-68.243-152.425-152.425-152.425-84.182 0-152.425 68.243-152.425 152.425 0 84.182 68.243 152.425 152.425 152.425z" fill="#ffffff" fill-rule="nonzero" stroke="none" stroke-width="1" stroke-linecap="butt" stroke-linejoin="miter" stroke-miterlimit="10" stroke-dasharray="" stroke-dashoffset="0" font-family="none" font-weight="none" font-size="none" text-anchor="none" style="mix-blend-mode: normal" data-fill-palette-color="tertiary"></path></g><g transform="matrix(1,0,0,1,167.15862506329051,80)"><svg viewBox="0 0 177.68274987341897 160" height="160" width="177.68274987341897"><g><svg viewBox="0 0 177.68274987341897 160" height="160" width="177.68274987341897"><g><svg viewBox="0 0 255.99999999999997 230.52322203016251" height="160" width="177.68274987341897"><g transform="matrix(1,0,0,1,0,130.55370410934725)"><svg viewBox="0 0 255.99999999999997 99.96951792081528" height="99.96951792081528" width="255.99999999999997"><g id="textblocktransform"><svg viewBox="0 0 255.99999999999997 99.96951792081528" height="99.96951792081528" width="255.99999999999997" id="textblock"><g><svg viewBox="0 0 255.99999999999997 60.51034112275047" height="60.51034112275047" width="255.99999999999997"><g transform="matrix(1,0,0,1,0,0)"><svg width="255.99999999999997" viewBox="4 -43.55 186.13 44" height="60.51034112275047" data-palette-color="#ffffff"><path d="M35.7-16.05L35.75-11.55Q35.85-5.15 35.85-1.6L35.85-1.6Q35.85-0.75 35.38-0.23 34.9 0.3 33.95 0.3L33.95 0.3Q33.05 0.3 32.52-0.23 32-0.75 32-1.55L32-1.55Q31.95-6.35 31.95-15.95L31.95-15.95Q31.95-31.1 29.8-31.1L29.8-31.1Q28.9-31.1 27.45-28.83 26-26.55 25-24.25L25-24.25Q24.05-22.05 23.4-19.65 22.75-17.25 22.05-14.1L22.05-14.1Q21.75-12.6 19.9-12.6L19.9-12.6Q19.05-12.6 18.53-12.93 18-13.25 17.75-14L17.75-14 17.05-16.5Q15.75-21.7 14.85-24L14.85-24Q13.85-26.6 12.45-28.9 11.05-31.2 10.25-31.2L10.25-31.2Q9.15-31.2 8.63-26.98 8.1-22.75 7.95-16.35L7.95-16.35Q7.9-14.1 7.9-9.4L7.9-9.4 7.9-1.55Q7.9-0.8 7.38-0.38 6.85 0.05 5.85 0.05L5.85 0.05Q4.75 0.05 4.38-0.48 4-1 4-1.9L4-1.9Q4-4.75 4.1-9.75L4.1-9.75 4.15-16.4Q4.15-26.3 5.5-30.95 6.85-35.6 9.8-35.6L9.8-35.6Q13.15-35.6 15.68-30.6 18.2-25.6 19.85-18.55L19.85-18.55Q20.75-22.65 22.4-26.6 24.05-30.55 26.15-33.08 28.25-35.6 30.45-35.6L30.45-35.6Q32.45-35.6 33.58-33.35 34.7-31.1 35.15-26.88 35.6-22.65 35.7-16.05L35.7-16.05ZM66.65-3.25Q67.35-3.15 67.7-2.85 68.05-2.55 68.05-1.75L68.05-1.75Q68.05-1 67.67-0.55 67.3-0.1 66.65-0.1L66.65-0.1Q64.6-0.1 63.62-0.75 62.65-1.4 61.95-3.2L61.95-3.2Q59.7 0.45 53.95 0.45L53.95 0.45Q49.9 0.45 47.4-1.35 44.9-3.15 43.82-5.93 42.75-8.7 42.75-11.8L42.75-11.8Q42.75-15.15 44.1-18.1 45.45-21.05 48.07-22.85 50.7-24.65 54.35-24.65L54.35-24.65Q56.85-24.65 58.7-23.65 60.55-22.65 61.6-20.85L61.6-20.85 61.8-22.5Q61.9-24.35 63.5-24.35L63.5-24.35Q64.5-24.35 65.02-23.88 65.55-23.4 65.45-22.75L65.45-22.75 65.3-21.5Q64.95-19.4 64.8-17.15L64.8-17.15Q64.65-15.25 64.65-12.05L64.65-12.05 64.65-8.6Q64.65-6.45 64.77-5.43 64.9-4.4 65.3-3.85 65.7-3.3 66.65-3.25L66.65-3.25ZM60.85-8.65Q60.9-11 60.9-14.7L60.9-14.7Q60.9-17.15 59.85-18.68 58.8-20.2 57.3-20.85 55.8-21.5 54.45-21.5L54.45-21.5Q51.8-21.5 50.02-20 48.25-18.5 47.42-16.25 46.6-14 46.6-11.8L46.6-11.8Q46.6-8.3 48.32-5.53 50.05-2.75 54-2.75L54-2.75Q56.95-2.75 58.87-4.28 60.8-5.8 60.85-8.65L60.85-8.65ZM103.19-25.3Q106.84-25.3 109.69-23.73 112.54-22.15 114.14-19.25 115.74-16.35 115.74-12.4L115.74-12.4Q115.74-8.1 113.89-5.28 112.04-2.45 109.19-1.15 106.34 0.15 103.19 0.15L103.19 0.15Q100.99 0.15 99.04-0.53 97.09-1.2 95.74-2.18 94.39-3.15 93.84-4.05L93.84-4.05Q93.54-2.95 92.72-2 91.89-1.05 91.14-0.7L91.14-0.7Q90.74-0.5 90.29-0.5L90.29-0.5Q89.54-0.5 89.04-1.05 88.54-1.6 88.54-2.2L88.54-2.2Q88.54-2.8 89.04-3.25L89.04-3.25Q89.19-3.4 89.54-3.68 89.89-3.95 90.17-4.28 90.44-4.6 90.59-5.05L90.59-5.05Q90.94-6.1 90.94-8.05L90.94-8.05 90.84-11.9 90.69-19.25 90.59-26.05Q90.49-35.9 90.19-41.95L90.19-41.95Q90.14-42.7 90.69-43.13 91.24-43.55 92.09-43.55L92.09-43.55Q92.89-43.55 93.42-43.15 93.94-42.75 93.99-42.05L93.99-42.05Q94.24-37.8 94.34-34 94.44-30.2 94.49-26.1L94.49-26.1Q94.49-23.4 94.54-21.85L94.54-21.85Q95.74-23.3 97.94-24.3 100.14-25.3 103.19-25.3L103.19-25.3ZM103.14-3Q105.34-3 107.32-3.95 109.29-4.9 110.59-7.05 111.89-9.2 111.89-12.5L111.89-12.5Q111.89-17.1 109.42-19.63 106.94-22.15 102.94-22.15L102.94-22.15Q100.19-22.15 97.97-20.75 95.74-19.35 94.69-17.55L94.69-17.55 94.69-13.75Q94.69-10.85 94.84-8.95L94.84-8.95Q94.94-7.4 96.12-6.03 97.29-4.65 99.17-3.83 101.04-3 103.14-3L103.14-3ZM127.24-28.3Q125.94-28.3 125.04-29.18 124.14-30.05 124.14-31.4L124.14-31.4Q124.14-32.75 125.04-33.63 125.94-34.5 127.34-34.5L127.34-34.5Q128.69-34.5 129.56-33.65 130.44-32.8 130.44-31.45L130.44-31.45Q130.44-30.1 129.52-29.2 128.59-28.3 127.24-28.3L127.24-28.3ZM126.49-0.3Q125.59-0.3 125.06-0.75 124.54-1.2 124.54-1.95L124.54-1.95 125.04-23.2Q125.04-24.05 125.56-24.5 126.09-24.95 126.99-24.95L126.99-24.95Q127.89-24.95 128.41-24.5 128.94-24.05 128.94-23.15L128.94-23.15 128.44-1.95Q128.39-1.15 127.87-0.73 127.34-0.3 126.49-0.3L126.49-0.3ZM150.34-25.3Q153.99-25.3 156.84-23.73 159.69-22.15 161.29-19.25 162.89-16.35 162.89-12.4L162.89-12.4Q162.89-8.1 161.04-5.28 159.19-2.45 156.34-1.15 153.49 0.15 150.34 0.15L150.34 0.15Q148.14 0.15 146.19-0.53 144.24-1.2 142.89-2.18 141.54-3.15 140.99-4.05L140.99-4.05Q140.69-2.95 139.86-2 139.04-1.05 138.29-0.7L138.29-0.7Q137.89-0.5 137.44-0.5L137.44-0.5Q136.69-0.5 136.19-1.05 135.69-1.6 135.69-2.2L135.69-2.2Q135.69-2.8 136.19-3.25L136.19-3.25Q136.34-3.4 136.69-3.68 137.04-3.95 137.31-4.28 137.59-4.6 137.74-5.05L137.74-5.05Q138.09-6.1 138.09-8.05L138.09-8.05 137.99-11.9 137.84-19.25 137.74-26.05Q137.64-35.9 137.34-41.95L137.34-41.95Q137.29-42.7 137.84-43.13 138.39-43.55 139.24-43.55L139.24-43.55Q140.04-43.55 140.56-43.15 141.09-42.75 141.14-42.05L141.14-42.05Q141.39-37.8 141.49-34 141.59-30.2 141.64-26.1L141.64-26.1Q141.64-23.4 141.69-21.85L141.69-21.85Q142.89-23.3 145.09-24.3 147.29-25.3 150.34-25.3L150.34-25.3ZM150.29-3Q152.49-3 154.46-3.95 156.44-4.9 157.74-7.05 159.04-9.2 159.04-12.5L159.04-12.5Q159.04-17.1 156.56-19.63 154.09-22.15 150.09-22.15L150.09-22.15Q147.34-22.15 145.11-20.75 142.89-19.35 141.84-17.55L141.84-17.55 141.84-13.75Q141.84-10.85 141.99-8.95L141.99-8.95Q142.09-7.4 143.26-6.03 144.44-4.65 146.31-3.83 148.19-3 150.29-3L150.29-3ZM171.99-0.45Q171.14-0.45 170.61-0.9 170.09-1.35 170.09-2.2L170.09-2.2 169.79-37.8Q169.79-38.65 170.34-39.13 170.89-39.6 171.79-39.6L171.79-39.6Q172.64-39.6 173.14-39.13 173.64-38.65 173.64-37.85L173.64-37.85 173.89-2.2Q173.89-1.35 173.36-0.9 172.84-0.45 171.99-0.45L171.99-0.45ZM186.93-28.3Q185.63-28.3 184.73-29.18 183.83-30.05 183.83-31.4L183.83-31.4Q183.83-32.75 184.73-33.63 185.63-34.5 187.03-34.5L187.03-34.5Q188.38-34.5 189.26-33.65 190.13-32.8 190.13-31.45L190.13-31.45Q190.13-30.1 189.21-29.2 188.28-28.3 186.93-28.3L186.93-28.3ZM186.18-0.3Q185.28-0.3 184.76-0.75 184.23-1.2 184.23-1.95L184.23-1.95 184.73-23.2Q184.73-24.05 185.26-24.5 185.78-24.95 186.68-24.95L186.68-24.95Q187.58-24.95 188.11-24.5 188.63-24.05 188.63-23.15L188.63-23.15 188.13-1.95Q188.08-1.15 187.56-0.73 187.03-0.3 186.18-0.3L186.18-0.3Z" opacity="1" transform="matrix(1,0,0,1,0,0)" fill="#ffffff" class="wordmark-text-0" data-fill-palette-color="primary" id="text-0"></path></svg></g></svg></g><g transform="matrix(1,0,0,1,0,74.7953804136449)"><svg viewBox="0 0 255.99999999999997 25.174137507170368" height="25.174137507170368" width="255.99999999999997"><g transform="matrix(1,0,0,1,0,0)"><svg width="255.99999999999997" viewBox="2.4 -41.65 610.07 60" height="25.174137507170368" data-palette-color="#ffffff"><path d="M29.85-36.4L29.85-36.4Q30.7-36 31.65-35.38 32.6-34.75 33.4-34.08 34.2-33.4 34.75-32.77 35.3-32.15 35.3-31.8L35.3-31.8Q34.6-31.95 33.77-32.05 32.95-32.15 32.2-32.15L32.2-32.15Q29.5-32.15 26.95-30.98 24.4-29.8 22.1-27.6 19.8-25.4 17.88-22.23 15.95-19.05 14.55-15.05L14.55-15.05Q13.4-11.7 12.7-8.43 12-5.15 12-2.95L12-2.95Q12-0.15 13.15-0.05L13.15-0.05Q13.45-0.05 14.18 0.08 14.9 0.2 15.73 0.4 16.55 0.6 17.38 0.83 18.2 1.05 18.75 1.25L18.75 1.25Q20.65 1.15 23.2-0.5 25.75-2.15 28.2-4.9L28.2-4.9Q30.35-7.3 32.08-10.18 33.8-13.05 35-16.23 36.2-19.4 36.83-22.75 37.45-26.1 37.45-29.4L37.45-29.4Q37.45-30.4 37.4-31.35 37.35-32.3 37.25-32.65L37.25-32.65Q39.3-31.65 40.15-30.3 41-28.95 41-26.85L41-26.85Q41-23.85 40.05-20.4 39.1-16.95 37.43-13.5 35.75-10.05 33.45-6.88 31.15-3.7 28.45-1.2L28.45-1.2Q24.9 2.1 22.65 2.5L22.65 2.5Q24 3.2 25.75 4.03 27.5 4.85 29.15 5.58 30.8 6.3 32.1 6.8 33.4 7.3 33.85 7.35L33.85 7.35Q34.35 7.3 35.15 6.73 35.95 6.15 36.5 5.35L36.5 5.35Q36.75 5.65 36.98 6.15 37.2 6.65 37.25 6.9L37.25 6.9Q37.05 7.6 36.43 8.53 35.8 9.45 35 10.33 34.2 11.2 33.38 11.85 32.55 12.5 31.95 12.65L31.95 12.65Q31.1 12.6 30.38 12.43 29.65 12.25 28.8 11.88 27.95 11.5 26.9 10.83 25.85 10.15 24.3 9.1L24.3 9.1Q21.55 7.2 19.5 5.95 17.45 4.7 15.75 3.95 14.05 3.2 12.55 2.9 11.05 2.6 9.45 2.6L9.45 2.6Q3.85 2.6 3.25 6.35L3.25 6.35Q2.5 6 2.4 5.4L2.4 5.4Q2.7 2.85 4.28 1.5 5.85 0.15 9.15-0.25L9.15-0.25Q6.85-2.25 6.85-7.25L6.85-7.25Q6.85-10.75 7.68-14.33 8.5-17.9 9.93-21.2 11.35-24.5 13.28-27.38 15.2-30.25 17.43-32.4 19.65-34.55 22.05-35.77 24.45-37 26.8-37L26.8-37Q27.65-37 28.38-36.85 29.1-36.7 29.85-36.4ZM54.05-1.1L54.05-1.1Q53.1-1.9 52.77-3.1 52.45-4.3 52.45-5.15L52.45-5.15Q52.45-6.2 52.7-6.95L52.7-6.95Q52.5-6.95 51.8-6.15 51.1-5.35 50.27-4.25 49.45-3.15 48.65-2.1 47.85-1.05 47.45-0.55L47.45-0.55Q46.8 0.15 46.22 0.55 45.65 0.95 45.3 1L45.3 1Q44.5 0.95 43.62 0.68 42.75 0.4 41.97-0.1 41.2-0.6 40.62-1.3 40.05-2 39.85-2.9L39.85-2.9Q39.85-4.3 39.92-5.2 40-6.1 40.25-7.15L40.25-7.15Q40.7-9.05 41.57-11.45 42.45-13.85 43.6-16.18 44.75-18.5 46.17-20.53 47.6-22.55 49.2-23.7L49.2-23.7Q49.65-23.7 50.25-23.63 50.85-23.55 51.47-23.35 52.1-23.15 52.67-22.88 53.25-22.6 53.65-22.15L53.65-22.15Q53.2-21.65 51.37-18.8 49.55-15.95 47.3-10.6L47.3-10.6Q47.05-10.05 46.7-9 46.35-7.95 46-6.8 45.65-5.65 45.42-4.55 45.2-3.45 45.2-2.8L45.2-2.8Q45.2-2.4 45.32-2.2 45.45-2 45.55-1.9L45.55-1.9Q46.3-2.2 47.45-3.55 48.6-4.9 50.65-7.7L50.65-7.7Q51.15-8.4 51.82-9.3 52.5-10.2 53.2-11.23 53.9-12.25 54.52-13.35 55.15-14.45 55.55-15.55L55.55-15.55Q55.75-16.15 56.07-16.98 56.4-17.8 56.87-18.7 57.35-19.6 57.97-20.53 58.6-21.45 59.45-22.25L59.45-22.25Q60.1-22.25 60.85-22.1 61.6-21.95 62.27-21.73 62.95-21.5 63.45-21.23 63.95-20.95 64.2-20.65L64.2-20.65Q63.3-18.45 62.2-16.3 61.1-14.15 60.15-12.08 59.2-10 58.55-7.95 57.9-5.9 57.9-3.95L57.9-3.95Q57.9-2.9 58.07-2.13 58.25-1.35 58.45-0.83 58.65-0.3 58.82 0.05 59 0.4 59 0.65L59 0.65Q59 0.7 58.9 0.8L58.9 0.8Q58.85 0.85 58.8 0.85L58.8 0.85Q58.45 0.85 57.9 0.7 57.35 0.55 56.67 0.28 56 0 55.32-0.35 54.65-0.7 54.05-1.1ZM71.7-25.35L71.7-25.35Q71.4-25.6 71.15-26.15 70.9-26.7 70.9-27.25L70.9-27.25Q71.5-29 72.02-31.28 72.55-33.55 72.55-36.35L72.55-36.35Q72.55-37.6 72.42-38.9 72.3-40.2 71.95-41.65L71.95-41.65Q74.35-41.5 76.32-40.63 78.3-39.75 78.95-38.5L78.95-38.5Q78.1-33.95 76.35-30.6 74.6-27.25 71.7-25.35ZM90.99-20.7L90.99-20.7Q90.79-17.6 89.89-15.38 88.99-13.15 87.32-11.48 85.64-9.8 83.24-8.45 80.84-7.1 77.64-5.85L77.64-5.85Q77.64-5.55 77.62-5.23 77.59-4.9 77.59-4.55L77.59-4.55Q77.59-3.9 77.69-3.2 77.79-2.5 78.04-1.9 78.29-1.3 78.74-0.93 79.19-0.55 79.89-0.55L79.89-0.55Q81.24-0.55 82.54-1.15 83.84-1.75 85.02-2.63 86.19-3.5 87.22-4.53 88.24-5.55 89.04-6.4L89.04-6.4Q89.54-5.95 89.89-5.55L89.89-5.55Q87.64-2.55 84.97-0.58 82.29 1.4 79.89 1.95L79.89 1.95Q76.44 1.55 74.52-0.58 72.59-2.7 72.59-5.7L72.59-5.7Q72.59-7.75 73.17-9.88 73.74-12 74.77-13.98 75.79-15.95 77.17-17.7 78.54-19.45 80.12-20.75 81.69-22.05 83.37-22.8 85.04-23.55 86.69-23.55L86.69-23.55Q88.99-23.25 90.99-20.7ZM87.54-19.05L87.54-19.05Q86.19-18.85 84.74-17.95 83.29-17.05 82.02-15.55 80.74-14.05 79.69-12.05 78.64-10.05 78.04-7.75L78.04-7.75Q82.04-9.75 84.69-12.68 87.34-15.6 87.54-19.05ZM110.54-19.9L110.54-19.9Q110.49-18.95 110.22-17.93 109.94-16.9 109.54-16.07 109.14-15.25 108.69-14.7 108.24-14.15 107.84-14.15L107.84-14.15Q107.29-14.2 107.19-14.9L107.19-14.9Q107.19-15.05 107.32-15.38 107.44-15.7 107.59-16.1 107.74-16.5 107.87-16.9 107.99-17.3 107.99-17.6L107.99-17.6Q107.99-18.3 107.67-18.78 107.34-19.25 106.79-19.25L106.79-19.25Q104.79-19.25 103.74-16.75 102.69-14.25 102.69-9.4L102.69-9.4Q102.69-8.9 102.74-8.8L102.74-8.8Q103.79-8.85 104.62-8.88 105.44-8.9 106.24-8.9L106.24-8.9Q106.29-8.8 106.29-8.5L106.29-8.5Q106.29-8.05 106.09-7.85L106.09-7.85Q104.94-7.6 104.27-7.43 103.59-7.25 103.24-7.1 102.89-6.95 102.82-6.78 102.74-6.6 102.74-6.3L102.74-6.3Q102.74-5.9 102.77-5.5 102.79-5.1 102.79-4.5L102.79-4.5Q102.79-0.3 100.52 2.25 98.24 4.8 94.19 5.2L94.19 5.2Q93.49 5.15 92.74 4.8 91.99 4.45 91.32 3.9 90.64 3.35 90.14 2.68 89.64 2 89.44 1.3L89.44 1.3Q89.44-0.6 90.24-2.33 91.04-4.05 92.42-5.38 93.79-6.7 95.67-7.53 97.54-8.35 99.74-8.5L99.74-8.5Q99.74-9.75 99.49-10.95 99.24-12.15 98.97-13.28 98.69-14.4 98.44-15.48 98.19-16.55 98.19-17.6L98.19-17.6Q98.19-18.95 98.74-20.28 99.29-21.6 100.19-22.73 101.09-23.85 102.29-24.65 103.49-25.45 104.79-25.75L104.79-25.75Q105.34-25.6 106.27-24.88 107.19-24.15 108.09-23.25 108.99-22.35 109.69-21.43 110.39-20.5 110.54-19.9ZM94.04 2.9L94.04 2.9Q95.24 2.4 96.32 1.45 97.39 0.5 98.19-0.7 98.99-1.9 99.47-3.25 99.94-4.6 99.94-5.9L99.94-5.9Q98.94-5.75 97.74-4.98 96.54-4.2 95.49-3.13 94.44-2.05 93.74-0.9 93.04 0.25 93.04 1.1L93.04 1.1Q93.04 2.2 94.04 2.9ZM116.39-19.15L113.54-19.15Q113.29-19.45 113.09-20.43 112.89-21.4 112.89-22.1L112.89-22.1Q114.19-22 115.39-21.93 116.59-21.85 117.59-21.8L117.59-21.8Q118.34-23.3 119.21-24.78 120.09-26.25 120.91-27.48 121.74-28.7 122.46-29.55 123.19-30.4 123.59-30.65L123.59-30.65Q124.09-30.65 124.86-30.48 125.64-30.3 126.44-30.03 127.24-29.75 127.89-29.45 128.54-29.15 128.79-28.85L128.79-28.85Q127.29-26.95 126.21-25.33 125.14-23.7 123.89-21.6L123.89-21.6Q124.89-21.6 125.91-21.65 126.94-21.7 127.99-21.8L127.99-21.8Q128.24-21.55 128.39-21.18 128.54-20.8 128.54-20.4L128.54-20.4Q126.09-19.5 122.59-19.4L122.59-19.4Q121.34-17 120.36-14.63 119.39-12.25 118.71-10.05 118.04-7.85 117.66-5.9 117.29-3.95 117.29-2.4L117.29-2.4Q117.29-0.2 118.94 0.05L118.94 0.05Q120.44-0.15 121.79-0.7 123.14-1.25 124.19-2.1L124.19-2.1Q124.49-1.65 124.54-1.35L124.54-1.35Q124.24-0.9 123.51-0.3 122.79 0.3 121.94 0.88 121.09 1.45 120.29 1.85 119.49 2.25 119.09 2.3L119.09 2.3Q117.84 2.25 116.59 1.75 115.34 1.25 114.31 0.5 113.29-0.25 112.64-1.18 111.99-2.1 111.99-3L111.99-3Q111.99-4.2 112.31-6.03 112.64-7.85 113.24-10 113.84-12.15 114.64-14.5 115.44-16.85 116.39-19.15L116.39-19.15ZM132.28-9.3L132.28-9.3Q130.74-9.3 129.81-10.18 128.89-11.05 128.89-12.6L128.89-12.6Q128.89-12.85 128.99-13.35 129.09-13.85 129.19-14.1L129.19-14.1Q130.03-13.95 130.78-13.93 131.53-13.9 132.74-13.9L132.74-13.9Q135.28-13.9 137.51-14.05 139.74-14.2 141.54-14.4 143.34-14.6 144.64-14.75 145.94-14.9 146.64-14.9L146.64-14.9Q147.59-14.9 148.31-13.75 149.04-12.6 149.39-10.45L149.39-10.45Q148.14-10.6 147.34-10.65 146.54-10.7 145.94-10.7L145.94-10.7Q143.79-10.7 141.94-10.48 140.09-10.25 138.44-10 136.78-9.75 135.28-9.53 133.78-9.3 132.28-9.3ZM153.53-8.8L153.53-8.8Q153.53-11.65 154.71-14.33 155.88-17 157.81-19.07 159.73-21.15 162.21-22.43 164.68-23.7 167.33-23.7L167.33-23.7Q169.93-23.7 171.33-22.4 172.73-21.1 172.73-18.7L172.73-18.7Q172.73-17.55 172.41-16.48 172.08-15.4 171.56-14.55 171.03-13.7 170.33-13.18 169.63-12.65 168.93-12.65L168.93-12.65Q168.33-12.65 167.71-13.03 167.08-13.4 166.68-14L166.68-14Q170.03-17.05 170.03-19.55L170.03-19.55Q170.03-21 168.88-21L168.88-21Q167.88-21 166.38-20.05 164.88-19.1 163.48-17.55L163.48-17.55Q161.33-15.15 160.21-12.23 159.08-9.3 159.08-6.1L159.08-6.1Q159.08-2.05 160.88-1.25L160.88-1.25Q161.63-1.35 162.63-1.7 163.63-2.05 164.78-2.63 165.93-3.2 167.16-3.95 168.38-4.7 169.53-5.55L169.53-5.55Q169.73-5.4 169.88-5.1 170.03-4.8 170.03-4.55L170.03-4.55Q169.18-3.5 168.08-2.5 166.98-1.5 165.78-0.68 164.58 0.15 163.46 0.73 162.33 1.3 161.48 1.45L161.48 1.45Q159.83 1.3 158.38 0.43 156.93-0.45 155.86-1.85 154.78-3.25 154.16-5.05 153.53-6.85 153.53-8.8ZM192.13-20.7L192.13-20.7Q191.93-17.6 191.03-15.38 190.13-13.15 188.46-11.48 186.78-9.8 184.38-8.45 181.98-7.1 178.78-5.85L178.78-5.85Q178.78-5.55 178.76-5.23 178.73-4.9 178.73-4.55L178.73-4.55Q178.73-3.9 178.83-3.2 178.93-2.5 179.18-1.9 179.43-1.3 179.88-0.93 180.33-0.55 181.03-0.55L181.03-0.55Q182.38-0.55 183.68-1.15 184.98-1.75 186.16-2.63 187.33-3.5 188.36-4.53 189.38-5.55 190.18-6.4L190.18-6.4Q190.68-5.95 191.03-5.55L191.03-5.55Q188.78-2.55 186.11-0.58 183.43 1.4 181.03 1.95L181.03 1.95Q177.58 1.55 175.66-0.58 173.73-2.7 173.73-5.7L173.73-5.7Q173.73-7.75 174.31-9.88 174.88-12 175.91-13.98 176.93-15.95 178.31-17.7 179.68-19.45 181.26-20.75 182.83-22.05 184.51-22.8 186.18-23.55 187.83-23.55L187.83-23.55Q190.13-23.25 192.13-20.7ZM188.68-19.05L188.68-19.05Q187.33-18.85 185.88-17.95 184.43-17.05 183.16-15.55 181.88-14.05 180.83-12.05 179.78-10.05 179.18-7.75L179.18-7.75Q183.18-9.75 185.83-12.68 188.48-15.6 188.68-19.05ZM226.33-22.2L226.33-22.2Q227.13-22.2 228-21.83 228.88-21.45 229.28-20.9L229.28-20.9Q227.43-17.15 226.15-14.55 224.88-11.95 223.95-9.98 223.03-8 222.33-6.45 221.63-4.9 220.93-3.25L220.93-3.25Q219.73-0.45 218.68 2.43 217.63 5.3 216.8 8.08 215.98 10.85 215.35 13.43 214.73 16 214.43 18.15L214.43 18.15Q214.23 18.35 213.53 18.35L213.53 18.35Q213.23 18.35 212.95 18.2 212.68 18.05 212.63 17.85L212.63 17.85Q212.53 17.6 212.25 17.35 211.98 17.1 211.58 17L211.58 17Q211.18 16.9 210.9 16.53 210.63 16.15 210.53 15.7L210.53 15.7Q211.08 6.9 215.78-4.2L215.78-4.2Q214.03-2.45 212.75-1.43 211.48-0.4 210.83-0.3L210.83-0.3Q210.13-0.3 209.3-1.03 208.48-1.75 207.75-2.8 207.03-3.85 206.55-5.08 206.08-6.3 206.08-7.3L206.08-7.3Q206.08-8.6 206.78-10.78 207.48-12.95 208.53-15.1L208.53-15.1Q212.53-23.05 220.43-24.5L220.43-24.5Q221.13-24.4 221.85-24.08 222.58-23.75 223.18-23.25 223.78-22.75 224.2-22.15 224.63-21.55 224.73-21L224.73-21Q224.83-21.3 225.43-21.75 226.03-22.2 226.33-22.2ZM217.38-8.85L217.38-8.85Q219.03-11.1 220.28-13.15 221.53-15.2 222.38-16.8L222.38-16.8Q223.38-18.65 224.13-20.3L224.13-20.3Q223.98-20.45 223.3-20.6 222.63-20.75 222.08-20.75L222.08-20.75Q220.78-20.75 219-19.45 217.23-18.15 215.83-16.2L215.83-16.2Q213.33-12.75 212-9.35 210.68-5.95 210.68-3.05L210.68-3.05Q210.68-2.7 211.13-2.7L211.13-2.7Q212.93-4 214.43-5.45 215.93-6.9 217.38-8.85ZM242.52-1.1L242.52-1.1Q241.57-1.9 241.25-3.1 240.92-4.3 240.92-5.15L240.92-5.15Q240.92-6.2 241.17-6.95L241.17-6.95Q240.97-6.95 240.27-6.15 239.57-5.35 238.75-4.25 237.92-3.15 237.12-2.1 236.32-1.05 235.92-0.55L235.92-0.55Q235.27 0.15 234.7 0.55 234.12 0.95 233.77 1L233.77 1Q232.97 0.95 232.1 0.68 231.22 0.4 230.45-0.1 229.67-0.6 229.1-1.3 228.52-2 228.32-2.9L228.32-2.9Q228.32-4.3 228.4-5.2 228.47-6.1 228.72-7.15L228.72-7.15Q229.17-9.05 230.05-11.45 230.92-13.85 232.07-16.18 233.22-18.5 234.65-20.53 236.07-22.55 237.67-23.7L237.67-23.7Q238.12-23.7 238.72-23.63 239.32-23.55 239.95-23.35 240.57-23.15 241.15-22.88 241.72-22.6 242.12-22.15L242.12-22.15Q241.67-21.65 239.85-18.8 238.02-15.95 235.77-10.6L235.77-10.6Q235.52-10.05 235.17-9 234.82-7.95 234.47-6.8 234.12-5.65 233.9-4.55 233.67-3.45 233.67-2.8L233.67-2.8Q233.67-2.4 233.8-2.2 233.92-2 234.02-1.9L234.02-1.9Q234.77-2.2 235.92-3.55 237.07-4.9 239.12-7.7L239.12-7.7Q239.62-8.4 240.3-9.3 240.97-10.2 241.67-11.23 242.37-12.25 243-13.35 243.62-14.45 244.02-15.55L244.02-15.55Q244.22-16.15 244.55-16.98 244.87-17.8 245.35-18.7 245.82-19.6 246.45-20.53 247.07-21.45 247.92-22.25L247.92-22.25Q248.57-22.25 249.32-22.1 250.07-21.95 250.75-21.73 251.42-21.5 251.92-21.23 252.42-20.95 252.67-20.65L252.67-20.65Q251.77-18.45 250.67-16.3 249.57-14.15 248.62-12.08 247.67-10 247.02-7.95 246.37-5.9 246.37-3.95L246.37-3.95Q246.37-2.9 246.55-2.13 246.72-1.35 246.92-0.83 247.12-0.3 247.3 0.05 247.47 0.4 247.47 0.65L247.47 0.65Q247.47 0.7 247.37 0.8L247.37 0.8Q247.32 0.85 247.27 0.85L247.27 0.85Q246.92 0.85 246.37 0.7 245.82 0.55 245.15 0.28 244.47 0 243.8-0.35 243.12-0.7 242.52-1.1ZM271.27-20.7L271.27-20.7Q271.07-17.6 270.17-15.38 269.27-13.15 267.6-11.48 265.92-9.8 263.52-8.45 261.12-7.1 257.92-5.85L257.92-5.85Q257.92-5.55 257.9-5.23 257.87-4.9 257.87-4.55L257.87-4.55Q257.87-3.9 257.97-3.2 258.07-2.5 258.32-1.9 258.57-1.3 259.02-0.93 259.47-0.55 260.17-0.55L260.17-0.55Q261.52-0.55 262.82-1.15 264.12-1.75 265.3-2.63 266.47-3.5 267.5-4.53 268.52-5.55 269.32-6.4L269.32-6.4Q269.82-5.95 270.17-5.55L270.17-5.55Q267.92-2.55 265.25-0.58 262.57 1.4 260.17 1.95L260.17 1.95Q256.72 1.55 254.8-0.58 252.87-2.7 252.87-5.7L252.87-5.7Q252.87-7.75 253.45-9.88 254.02-12 255.05-13.98 256.07-15.95 257.45-17.7 258.82-19.45 260.4-20.75 261.97-22.05 263.65-22.8 265.32-23.55 266.97-23.55L266.97-23.55Q269.27-23.25 271.27-20.7ZM267.82-19.05L267.82-19.05Q266.47-18.85 265.02-17.95 263.57-17.05 262.3-15.55 261.02-14.05 259.97-12.05 258.92-10.05 258.32-7.75L258.32-7.75Q262.32-9.75 264.97-12.68 267.62-15.6 267.82-19.05ZM286.56-9.35L286.56-9.35Q288.42-16.75 290.19-20.18 291.97-23.6 293.92-23.6L293.92-23.6Q295.31-23.6 297.26-22.25L297.26-22.25Q295.67-19.4 294.79-17.53 293.92-15.65 293.51-14.1L293.51-14.1Q292.67-11.1 291.72-7.88 290.76-4.65 289.84-1.7 288.92 1.25 288.14 3.63 287.37 6 286.92 7.25L286.92 7.25Q285.81 10.2 284.74 12.25 283.67 14.3 282.51 15.6 281.37 16.9 280.09 17.5 278.81 18.1 277.31 18.1L277.31 18.1Q276.22 18.1 275.14 17.88 274.06 17.65 273.12 17.28 272.17 16.9 271.42 16.35 270.67 15.8 270.22 15.2L270.22 15.2Q270.26 14.85 270.54 14.53 270.81 14.2 271.06 14.15L271.06 14.15Q271.92 15.05 272.84 15.45 273.76 15.85 275.06 15.85L275.06 15.85Q276.67 15.85 277.89 14.9 279.12 13.95 280.37 11.23 281.62 8.5 283.06 3.58 284.51-1.35 286.56-9.35ZM294.72-27.55L294.72-27.55Q294.72-27.8 294.87-28.4L294.87-28.4Q294.26-29 294.26-30.1L294.26-30.1Q294.26-30.55 294.39-31.35 294.51-32.15 294.74-33.08 294.97-34 295.24-34.95 295.51-35.9 295.81-36.6L295.81-36.6Q296.42-36.6 297.29-36.27 298.17-35.95 299.06-35.43 299.97-34.9 300.72-34.27 301.47-33.65 301.87-33.1L301.87-33.1Q301.26-32.55 300.37-31.55 299.47-30.55 298.62-29.48 297.76-28.4 297.06-27.48 296.37-26.55 296.22-26.15L296.22-26.15Q295.62-26.25 295.17-26.68 294.72-27.1 294.72-27.55ZM304.66-25.35L304.66-25.35Q304.36-25.6 304.11-26.15 303.86-26.7 303.86-27.25L303.86-27.25Q304.46-29 304.99-31.28 305.51-33.55 305.51-36.35L305.51-36.35Q305.51-37.6 305.39-38.9 305.26-40.2 304.91-41.65L304.91-41.65Q307.31-41.5 309.29-40.63 311.26-39.75 311.91-38.5L311.91-38.5Q311.06-33.95 309.31-30.6 307.56-27.25 304.66-25.35ZM323.21-20.2L323.21-20.2Q323.71-20.2 324.39-20.03 325.06-19.85 325.61-19.58 326.16-19.3 326.54-19 326.91-18.7 326.91-18.45L326.91-18.45Q325.91-16.35 325.06-14.23 324.21-12.1 323.61-10.15 323.01-8.2 322.69-6.5 322.36-4.8 322.36-3.55L322.36-3.55Q322.36-2.15 322.66-1.23 322.96-0.3 323.66 0.1L323.66 0.1Q323.06 0.5 322.11 0.75 321.16 1 320.41 1L320.41 1Q317.71 1 317.71-2.7L317.71-2.7Q317.71-5.55 319.61-10.5L319.61-10.5Q318.61-8.2 317.31-6.18 316.01-4.15 314.66-2.6 313.31-1.05 311.94-0.08 310.56 0.9 309.41 1.1L309.41 1.1Q307.56 1 306.41-0.68 305.26-2.35 305.26-4.95L305.26-4.95Q305.26-7.75 306.46-10.85 307.66-13.95 309.54-16.6 311.41-19.25 313.61-21.03 315.81-22.8 317.86-22.9L317.86-22.9Q318.36-22.75 318.99-22.3 319.61-21.85 320.19-21.25 320.76-20.65 321.16-20.03 321.56-19.4 321.61-18.95L321.61-18.95Q319.61-18.65 317.49-17 315.36-15.35 313.64-13.03 311.91-10.7 310.81-8.05 309.71-5.4 309.71-3.1L309.71-3.1Q309.71-2.15 310.41-1.9L310.41-1.9Q311.86-2.2 313.76-4.38 315.66-6.55 318.36-11.1L318.36-11.1Q318.86-12 319.49-13.1 320.11-14.2 320.76-15.4 321.41-16.6 322.04-17.82 322.66-19.05 323.21-20.2ZM329.31-3.35L329.31-3.35Q329.31-3.8 329.38-4.48 329.46-5.15 329.66-6.28 329.86-7.4 330.18-9 330.51-10.6 331.01-12.85L331.01-12.85Q331.11-13.35 331.46-14.45 331.81-15.55 332.38-16.78 332.96-18 333.78-19.15 334.61-20.3 335.76-20.85L335.76-20.85Q336.61-20.65 338.01-19.83 339.41-19 340.41-17.55L340.41-17.55Q339.26-16.25 338.48-14.95 337.71-13.65 337.08-12.25 336.46-10.85 335.93-9.35 335.41-7.85 334.76-6.2L334.76-6.2Q334.21-4.8 333.76-3.33 333.31-1.85 333.26-0.75L333.26-0.75Q333.26 0.15 333.23 0.53 333.21 0.9 332.96 0.9L332.96 0.9Q332.76 0.9 332.16 0.65 331.56 0.4 330.93-0.13 330.31-0.65 329.81-1.45 329.31-2.25 329.31-3.35ZM338.86-25.05L338.86-25.05Q338.86-25.35 339.01-25.95L339.01-25.95Q338.76-26.2 338.58-26.7 338.41-27.2 338.41-27.6L338.41-27.6Q338.41-28.05 338.53-28.83 338.66-29.6 338.86-30.5 339.06-31.4 339.36-32.38 339.66-33.35 339.96-34.15L339.96-34.15Q340.56-34.15 341.43-33.83 342.31-33.5 343.21-32.98 344.11-32.45 344.86-31.83 345.61-31.2 346.01-30.65L346.01-30.65Q345.46-30.1 344.56-29.13 343.66-28.15 342.81-27.08 341.96-26 341.26-25.05 340.56-24.1 340.36-23.7L340.36-23.7Q339.76-23.8 339.31-24.23 338.86-24.65 338.86-25.05ZM352.9-3.2L352.9-3.2Q352.9-5.4 353.95-9.38 355-13.35 356.9-18.65L356.9-18.65Q360-27.1 362.73-32.73 365.45-38.35 368.05-41.5L368.05-41.5Q368.65-41.4 369.53-41 370.4-40.6 371.25-40.13 372.1-39.65 372.78-39.15 373.45-38.65 373.65-38.35L373.65-38.35Q369.75-33.75 366.8-28.45 363.85-23.15 361.4-16.3L361.4-16.3Q359.3-10.4 358.2-5.68 357.1-0.95 357.1 2.2L357.1 2.2Q357.1 3.05 357.1 3.25 357.1 3.45 357.15 3.65L357.15 3.65Q356.45 3.55 355.95 3.3 355.45 3.05 355.3 2.7L355.3 2.7Q355.2 2.45 354.75 1.98 354.3 1.5 353.95 1.25L353.95 1.25Q353.5 0.95 353.2-0.33 352.9-1.6 352.9-3.2ZM378.35-1.1L378.35-1.1Q377.4-1.9 377.08-3.1 376.75-4.3 376.75-5.15L376.75-5.15Q376.75-6.2 377-6.95L377-6.95Q376.8-6.95 376.1-6.15 375.4-5.35 374.58-4.25 373.75-3.15 372.95-2.1 372.15-1.05 371.75-0.55L371.75-0.55Q371.1 0.15 370.53 0.55 369.95 0.95 369.6 1L369.6 1Q368.8 0.95 367.93 0.68 367.05 0.4 366.28-0.1 365.5-0.6 364.93-1.3 364.35-2 364.15-2.9L364.15-2.9Q364.15-4.3 364.23-5.2 364.3-6.1 364.55-7.15L364.55-7.15Q365-9.05 365.88-11.45 366.75-13.85 367.9-16.18 369.05-18.5 370.48-20.53 371.9-22.55 373.5-23.7L373.5-23.7Q373.95-23.7 374.55-23.63 375.15-23.55 375.78-23.35 376.4-23.15 376.98-22.88 377.55-22.6 377.95-22.15L377.95-22.15Q377.5-21.65 375.68-18.8 373.85-15.95 371.6-10.6L371.6-10.6Q371.35-10.05 371-9 370.65-7.95 370.3-6.8 369.95-5.65 369.73-4.55 369.5-3.45 369.5-2.8L369.5-2.8Q369.5-2.4 369.63-2.2 369.75-2 369.85-1.9L369.85-1.9Q370.6-2.2 371.75-3.55 372.9-4.9 374.95-7.7L374.95-7.7Q375.45-8.4 376.13-9.3 376.8-10.2 377.5-11.23 378.2-12.25 378.83-13.35 379.45-14.45 379.85-15.55L379.85-15.55Q380.05-16.15 380.38-16.98 380.7-17.8 381.18-18.7 381.65-19.6 382.28-20.53 382.9-21.45 383.75-22.25L383.75-22.25Q384.4-22.25 385.15-22.1 385.9-21.95 386.58-21.73 387.25-21.5 387.75-21.23 388.25-20.95 388.5-20.65L388.5-20.65Q387.6-18.45 386.5-16.3 385.4-14.15 384.45-12.08 383.5-10 382.85-7.95 382.2-5.9 382.2-3.95L382.2-3.95Q382.2-2.9 382.38-2.13 382.55-1.35 382.75-0.83 382.95-0.3 383.13 0.05 383.3 0.4 383.3 0.65L383.3 0.65Q383.3 0.7 383.2 0.8L383.2 0.8Q383.15 0.85 383.1 0.85L383.1 0.85Q382.75 0.85 382.2 0.7 381.65 0.55 380.98 0.28 380.3 0 379.63-0.35 378.95-0.7 378.35-1.1ZM412.25-23.35L412.25-23.35Q413.25-23.35 414.55-22.75 415.85-22.15 416.85-21.2L416.85-21.2Q416.6-23.2 416.22-24.98 415.85-26.75 415.12-28.65 414.4-30.55 413.2-32.8 412-35.05 410.2-37.95L410.2-37.95Q410.35-38.4 410.87-39 411.4-39.6 412.07-40.13 412.75-40.65 413.47-41.05 414.2-41.45 414.85-41.55L414.85-41.55Q416.25-40 417.5-37.68 418.75-35.35 419.7-32.68 420.65-30 421.17-27.15 421.7-24.3 421.7-21.7L421.7-21.7Q421.7-19.1 421.12-16.35 420.55-13.6 419.52-10.98 418.5-8.35 417.15-6 415.8-3.65 414.22-1.8 412.65 0.05 410.95 1.23 409.25 2.4 407.55 2.7L407.55 2.7Q404.1 2.3 402.27 0.48 400.45-1.35 400.45-4.55L400.45-4.55Q400.45-6.25 400.97-8.25 401.5-10.25 402.37-12.23 403.25-14.2 404.42-16.07 405.6-17.95 406.92-19.45 408.25-20.95 409.6-22 410.95-23.05 412.25-23.35ZM407.15 0.7L407.15 0.7Q408.9 0.1 410.65-1.95 412.4-4 413.8-6.78 415.2-9.55 416.07-12.73 416.95-15.9 416.95-18.85L416.95-18.85Q416.95-19.7 416.95-19.9 416.95-20.1 416.9-20.3L416.9-20.3Q415.7-19.8 414.35-18.6 413-17.4 411.65-15.83 410.3-14.25 409.1-12.4 407.9-10.55 406.95-8.7 406-6.85 405.45-5.15 404.9-3.45 404.9-2.15L404.9-2.15Q404.9 0.35 407.15 0.7ZM440.89-20.7L440.89-20.7Q440.69-17.6 439.79-15.38 438.89-13.15 437.22-11.48 435.54-9.8 433.14-8.45 430.74-7.1 427.54-5.85L427.54-5.85Q427.54-5.55 427.52-5.23 427.49-4.9 427.49-4.55L427.49-4.55Q427.49-3.9 427.59-3.2 427.69-2.5 427.94-1.9 428.19-1.3 428.64-0.93 429.09-0.55 429.79-0.55L429.79-0.55Q431.14-0.55 432.44-1.15 433.74-1.75 434.92-2.63 436.09-3.5 437.12-4.53 438.14-5.55 438.94-6.4L438.94-6.4Q439.44-5.95 439.79-5.55L439.79-5.55Q437.54-2.55 434.87-0.58 432.19 1.4 429.79 1.95L429.79 1.95Q426.34 1.55 424.42-0.58 422.49-2.7 422.49-5.7L422.49-5.7Q422.49-7.75 423.07-9.88 423.64-12 424.67-13.98 425.69-15.95 427.07-17.7 428.44-19.45 430.02-20.75 431.59-22.05 433.27-22.8 434.94-23.55 436.59-23.55L436.59-23.55Q438.89-23.25 440.89-20.7ZM437.44-19.05L437.44-19.05Q436.09-18.85 434.64-17.95 433.19-17.05 431.92-15.55 430.64-14.05 429.59-12.05 428.54-10.05 427.94-7.75L427.94-7.75Q431.94-9.75 434.59-12.68 437.24-15.6 437.44-19.05ZM444.29-9.35L444.29-9.35Q446.14-16.75 447.92-20.18 449.69-23.6 451.64-23.6L451.64-23.6Q453.04-23.6 454.99-22.25L454.99-22.25Q453.39-19.4 452.52-17.53 451.64-15.65 451.24-14.1L451.24-14.1Q450.39-11.1 449.44-7.88 448.49-4.65 447.57-1.7 446.64 1.25 445.87 3.63 445.09 6 444.64 7.25L444.64 7.25Q443.54 10.2 442.47 12.25 441.39 14.3 440.24 15.6 439.09 16.9 437.82 17.5 436.54 18.1 435.04 18.1L435.04 18.1Q433.94 18.1 432.87 17.88 431.79 17.65 430.84 17.28 429.89 16.9 429.14 16.35 428.39 15.8 427.94 15.2L427.94 15.2Q427.99 14.85 428.27 14.53 428.54 14.2 428.79 14.15L428.79 14.15Q429.64 15.05 430.57 15.45 431.49 15.85 432.79 15.85L432.79 15.85Q434.39 15.85 435.62 14.9 436.84 13.95 438.09 11.23 439.34 8.5 440.79 3.58 442.24-1.35 444.29-9.35ZM452.44-27.55L452.44-27.55Q452.44-27.8 452.59-28.4L452.59-28.4Q451.99-29 451.99-30.1L451.99-30.1Q451.99-30.55 452.12-31.35 452.24-32.15 452.47-33.08 452.69-34 452.97-34.95 453.24-35.9 453.54-36.6L453.54-36.6Q454.14-36.6 455.02-36.27 455.89-35.95 456.79-35.43 457.69-34.9 458.44-34.27 459.19-33.65 459.59-33.1L459.59-33.1Q458.99-32.55 458.09-31.55 457.19-30.55 456.34-29.48 455.49-28.4 454.79-27.48 454.09-26.55 453.94-26.15L453.94-26.15Q453.34-26.25 452.89-26.68 452.44-27.1 452.44-27.55ZM472.24-20.2L472.24-20.2Q472.74-20.2 473.41-20.03 474.09-19.85 474.64-19.58 475.19-19.3 475.56-19 475.94-18.7 475.94-18.45L475.94-18.45Q474.94-16.35 474.09-14.23 473.24-12.1 472.64-10.15 472.04-8.2 471.71-6.5 471.39-4.8 471.39-3.55L471.39-3.55Q471.39-2.15 471.69-1.23 471.99-0.3 472.69 0.1L472.69 0.1Q472.09 0.5 471.14 0.75 470.19 1 469.44 1L469.44 1Q466.74 1 466.74-2.7L466.74-2.7Q466.74-5.55 468.64-10.5L468.64-10.5Q467.64-8.2 466.34-6.18 465.04-4.15 463.69-2.6 462.34-1.05 460.96-0.08 459.59 0.9 458.44 1.1L458.44 1.1Q456.59 1 455.44-0.68 454.29-2.35 454.29-4.95L454.29-4.95Q454.29-7.75 455.49-10.85 456.69-13.95 458.56-16.6 460.44-19.25 462.64-21.03 464.84-22.8 466.89-22.9L466.89-22.9Q467.39-22.75 468.01-22.3 468.64-21.85 469.21-21.25 469.79-20.65 470.19-20.03 470.59-19.4 470.64-18.95L470.64-18.95Q468.64-18.65 466.51-17 464.39-15.35 462.66-13.03 460.94-10.7 459.84-8.05 458.74-5.4 458.74-3.1L458.74-3.1Q458.74-2.15 459.44-1.9L459.44-1.9Q460.89-2.2 462.79-4.38 464.69-6.55 467.39-11.1L467.39-11.1Q467.89-12 468.51-13.1 469.14-14.2 469.79-15.4 470.44-16.6 471.06-17.82 471.69-19.05 472.24-20.2ZM519.28-15.35L519.28-15.35Q518.48-15.3 517.33-14.33 516.18-13.35 514.86-11.83 513.53-10.3 512.11-8.45 510.68-6.6 509.36-4.78 508.03-2.95 506.88-1.35 505.73 0.25 504.93 1.2L504.93 1.2Q503.83 0.75 503.03-0.13 502.23-1 501.88-2.3L501.88-2.3Q502.13-3.85 502.58-5.53 503.03-7.2 503.76-9 504.48-10.8 505.56-12.78 506.63-14.75 508.18-16.95L508.18-16.95Q507.43-16.9 506.13-15.88 504.83-14.85 503.33-13.23 501.83-11.6 500.23-9.58 498.63-7.55 497.23-5.6L497.23-5.6Q495.38-3 494.16-1.05 492.93 0.9 492.38 1.25L492.38 1.25Q491.08 0.3 490.58-0.8 490.08-1.9 489.83-3.25L489.83-3.25Q489.88-4.45 490.21-6.25 490.53-8.05 491.13-9.95L491.13-9.95Q492.28-13.6 494.11-17.2 495.93-20.8 497.63-23.8L497.63-23.8Q499.03-23.5 500.16-22.85 501.28-22.2 502.53-20.95L502.53-20.95Q502.03-19.4 500.98-17.68 499.93-15.95 498.78-14.05 497.63-12.15 496.68-10.15 495.73-8.15 495.43-6.1L495.43-6.1Q496.83-8.1 498.76-10.7 500.68-13.3 502.71-15.6 504.73-17.9 506.73-19.5 508.73-21.1 510.33-21.1L510.33-21.1Q510.93-21.1 511.63-20.9 512.33-20.7 512.93-20.4 513.53-20.1 513.93-19.83 514.33-19.55 514.38-19.4L514.38-19.4Q514.13-18.4 513.21-16.68 512.28-14.95 511.23-13.05 510.18-11.15 509.28-9.38 508.38-7.6 508.23-6.55L508.23-6.55Q510.68-9.9 512.83-12.63 514.98-15.35 516.88-17.3 518.78-19.25 520.41-20.3 522.03-21.35 523.48-21.35L523.48-21.35Q524.48-21.35 525.36-20.83 526.23-20.3 526.58-19.3L526.58-19.3Q526.13-17.8 525.11-15.7 524.08-13.6 523.03-11.28 521.98-8.95 521.16-6.7 520.33-4.45 520.33-2.65L520.33-2.65Q520.33-1.6 520.63-1.28 520.93-0.95 521.48-0.95L521.48-0.95Q522.08-0.95 522.61-1.18 523.13-1.4 523.38-1.4L523.38-1.4Q523.68-1.2 523.73-0.9 523.78-0.6 523.78-0.35L523.78-0.35Q522.78 0.45 521.73 0.98 520.68 1.5 519.38 1.5L519.38 1.5Q518.18 1.5 517.41 1.1 516.63 0.7 516.13 0 515.63-0.7 515.43-1.6 515.23-2.5 515.23-3.55L515.23-3.55Q515.23-5.25 515.68-6.93 516.13-8.6 516.76-10.13 517.38-11.65 518.08-12.98 518.78-14.3 519.28-15.35ZM534.53 1.75L534.53 1.75Q531.68 1.45 529.98-0.75 528.28-2.95 528.28-6.35L528.28-6.35Q528.28-8.35 528.88-10.5 529.48-12.65 530.58-14.68 531.68-16.7 533.18-18.5 534.68-20.3 536.43-21.6L536.43-21.6Q539.18-23.65 541.58-23.65L541.58-23.65Q543.18-22.8 544.73-20.1L544.73-20.1Q544.98-20.1 545.18-20.13 545.38-20.15 545.63-20.15L545.63-20.15Q548.28-20.15 548.28-15.45L548.28-15.45Q548.28-12.3 547.25-9.47 546.23-6.65 544.4-4.35 542.58-2.05 540.05-0.48 537.53 1.1 534.53 1.75ZM537.08-14L537.08-14Q536.23-12.85 535.48-11.5 534.73-10.15 534.18-8.78 533.63-7.4 533.33-6.13 533.03-4.85 533.03-3.85L533.03-3.85Q533.03-2.65 533.43-1.55 533.83-0.45 534.33-0.3L534.33-0.3Q536.58-0.8 538.45-2.18 540.33-3.55 541.7-5.6 543.08-7.65 543.86-10.25 544.63-12.85 544.63-15.8L544.63-15.8Q544.63-17.1 544.48-17.85 544.33-18.6 543.98-19.15L543.98-19.15Q541.78-18.5 540.05-17.05 538.33-15.6 537.08-14ZM550.73-3.35L550.73-3.35Q550.73-3.8 550.8-4.48 550.88-5.15 551.08-6.28 551.28-7.4 551.6-9 551.93-10.6 552.43-12.85L552.43-12.85Q552.53-13.35 552.88-14.45 553.23-15.55 553.8-16.78 554.38-18 555.2-19.15 556.03-20.3 557.18-20.85L557.18-20.85Q558.03-20.65 559.43-19.83 560.83-19 561.83-17.55L561.83-17.55Q560.68-16.25 559.9-14.95 559.13-13.65 558.5-12.25 557.88-10.85 557.35-9.35 556.83-7.85 556.18-6.2L556.18-6.2Q555.63-4.8 555.18-3.33 554.73-1.85 554.68-0.75L554.68-0.75Q554.68 0.15 554.65 0.53 554.63 0.9 554.38 0.9L554.38 0.9Q554.18 0.9 553.58 0.65 552.98 0.4 552.35-0.13 551.73-0.65 551.23-1.45 550.73-2.25 550.73-3.35ZM560.28-25.05L560.28-25.05Q560.28-25.35 560.43-25.95L560.43-25.95Q560.18-26.2 560-26.7 559.83-27.2 559.83-27.6L559.83-27.6Q559.83-28.05 559.95-28.83 560.08-29.6 560.28-30.5 560.48-31.4 560.78-32.38 561.08-33.35 561.38-34.15L561.38-34.15Q561.98-34.15 562.85-33.83 563.73-33.5 564.63-32.98 565.53-32.45 566.28-31.83 567.03-31.2 567.43-30.65L567.43-30.65Q566.88-30.1 565.98-29.13 565.08-28.15 564.23-27.08 563.38-26 562.68-25.05 561.98-24.1 561.78-23.7L561.78-23.7Q561.18-23.8 560.73-24.23 560.28-24.65 560.28-25.05ZM563.87 1.9L563.87 1.9Q563.07 1.8 562.2 1.23 561.32 0.65 561.07-0.05L561.07-0.05Q561.07-0.65 561.25-1.6 561.42-2.55 561.67-3.53 561.92-4.5 562.17-5.38 562.42-6.25 562.52-6.7L562.52-6.7Q563.12-6.7 564.05-6.4 564.97-6.1 565.95-5.58 566.92-5.05 567.8-4.38 568.67-3.7 569.12-3L569.12-3Q568.67-2 567.97-1.1 567.27-0.2 566.5 0.48 565.72 1.15 565.02 1.53 564.32 1.9 563.87 1.9ZM575.92 1.9L575.92 1.9Q575.12 1.8 574.25 1.23 573.37 0.65 573.12-0.05L573.12-0.05Q573.12-0.65 573.3-1.6 573.47-2.55 573.72-3.53 573.97-4.5 574.22-5.38 574.47-6.25 574.57-6.7L574.57-6.7Q575.17-6.7 576.1-6.4 577.02-6.1 578-5.58 578.97-5.05 579.85-4.38 580.72-3.7 581.17-3L581.17-3Q580.72-2 580.02-1.1 579.32-0.2 578.55 0.48 577.77 1.15 577.07 1.53 576.37 1.9 575.92 1.9ZM602.37-38.85L602.37-38.85Q604.32-38.7 606.14-37.85 607.97-37 609.37-35.7 610.77-34.4 611.62-32.7 612.47-31 612.47-29.15L612.47-29.15Q612.47-27.25 611.79-25.6 611.12-23.95 609.82-22.25 608.52-20.55 606.62-18.73 604.72-16.9 602.32-14.6L602.32-14.6Q599.97-12.4 598.77-10.13 597.57-7.85 597.57-6L597.57-6Q597.57-5.75 597.59-5.5 597.62-5.25 597.67-4.95L597.67-4.95Q596.82-5 595.87-5.35 594.92-5.7 594.04-6.28 593.17-6.85 592.49-7.53 591.82-8.2 591.52-8.9L591.52-8.9Q591.52-10.05 592.07-11.68 592.62-13.3 593.74-15.08 594.87-16.85 596.64-18.65 598.42-20.45 600.87-21.9L600.87-21.9Q604.82-24.25 606.77-26.45 608.72-28.65 608.72-30.4L608.72-30.4Q608.72-31.2 608.39-31.95 608.07-32.7 607.57-33.3 607.07-33.9 606.39-34.27 605.72-34.65 605.07-34.65L605.07-34.65Q604.32-34.65 603.39-33.9 602.47-33.15 601.67-32.05 600.87-30.95 600.32-29.65 599.77-28.35 599.77-27.3L599.77-27.3Q599.77-26.6 599.92-26.4L599.92-26.4Q599.52-26.3 599.27-26.3 599.02-26.3 598.77-26.3L598.77-26.3Q597.77-26.3 596.79-26.5 595.82-26.7 594.99-27 594.17-27.3 593.59-27.73 593.02-28.15 592.87-28.6L592.87-28.6Q593.22-30.25 594.27-32 595.32-33.75 596.67-35.23 598.02-36.7 599.52-37.7 601.02-38.7 602.37-38.85ZM591.32 3.85L591.32 3.85Q590.92 3.85 590.39 3.68 589.87 3.5 589.39 3.15 588.92 2.8 588.57 2.25 588.22 1.7 588.22 0.95L588.22 0.95Q588.22 0.5 588.37-0.33 588.52-1.15 588.84-1.98 589.17-2.8 589.67-3.43 590.17-4.05 590.92-4.05L590.92-4.05Q591.37-4.05 592.04-3.78 592.72-3.5 593.37-3.08 594.02-2.65 594.62-2.08 595.22-1.5 595.52-0.9L595.52-0.9Q594.97-0.3 594.49 0.53 594.02 1.35 593.57 2.1 593.12 2.85 592.57 3.35 592.02 3.85 591.32 3.85Z" opacity="1" transform="matrix(1,0,0,1,0,0)" fill="#ffffff" class="slogan-text-1" data-fill-palette-color="secondary" id="text-1"></path></svg></g></svg></g></svg></g></svg></g><g transform="matrix(1,0,0,1,48.896,0)"><svg viewBox="0 0 158.20799999999997 116.26866481845282" height="116.26866481845282" width="158.20799999999997"><g><svg xmlns="http://www.w3.org/2000/svg" xmlns:xlink="http://www.w3.org/1999/xlink" version="1.1" x="0" y="0" viewBox="4.998693104208451 16.928 90.00147856122297 66.14300000000001" enable-background="new 0 0 100 100" xml:space="preserve" height="116.26866481845282" width="158.20799999999997" class="icon-icon-0" data-fill-palette-color="accent" id="icon-0"><g fill="#ffffff" data-fill-palette-color="accent"><g fill="#ffffff" data-fill-palette-color="accent"><g fill="#ffffff" data-fill-palette-color="accent"><g fill="#ffffff" data-fill-palette-color="accent"><path d="M73.466 33.216C73.464 33.216 73.464 33.216 73.466 33.216c-1.649 0-3.244-0.497-4.611-1.435-3.698-2.542-4.642-7.621-2.103-11.32 1.514-2.212 4.025-3.533 6.716-3.533 1.649 0 3.239 0.494 4.603 1.428 3.705 2.548 4.649 7.632 2.106 11.332C78.657 31.896 76.149 33.216 73.466 33.216zM73.468 18.402c-2.203 0-4.261 1.081-5.5 2.892-2.078 3.031-1.306 7.189 1.722 9.271 1.121 0.769 2.426 1.175 3.774 1.175h0.002c2.195 0 4.249-1.081 5.493-2.89 2.084-3.029 1.31-7.192-1.724-9.279C76.121 18.808 74.816 18.402 73.468 18.402z" fill="#ffffff" data-fill-palette-color="accent"></path><path d="M13.187 74.492l3.404-4.834h53.557l2.697 4.688L13.187 74.492zM17.357 71.134l-1.321 1.875L70.3 72.874l-1.004-1.74H17.357L17.357 71.134z" fill="#ffffff" data-fill-palette-color="accent"></path></g><g fill="#ffffff" data-fill-palette-color="accent"><polygon points="52.604,41.69 47.096,27.861 58.687,23.125 64.181,36.941 61.757,37.907 61.212,36.537 62.267,36.116       57.866,25.054 49.008,28.673 53.407,39.72 55.128,38.956 55.725,40.305     " fill="#ffffff" data-fill-palette-color="accent"></polygon></g></g><path d="M94.958 37.427c-0.135-0.847-0.592-1.588-1.284-2.09-1.435-1.038-3.446-0.718-4.49 0.713L68.385 64.702H14.733c-1.774 0-3.217 1.442-3.217 3.216 0 0.63 0.183 1.231 0.522 1.748l-6.563 9.313c-0.399 0.567-0.556 1.255-0.438 1.938s0.495 1.283 1.063 1.683c0.44 0.308 0.956 0.471 1.492 0.471 0.848 0 1.642-0.411 2.123-1.097l4.58-6.501-1.809 0.006-3.979 5.65c-0.338 0.483-1.063 0.612-1.558 0.265-0.244-0.171-0.407-0.429-0.457-0.723-0.05-0.296 0.017-0.594 0.19-0.837l7.235-10.271-0.43-0.438c-0.32-0.326-0.495-0.753-0.495-1.204 0-0.961 0.781-1.742 1.741-1.742H69.14l21.238-29.262c0.563-0.776 1.653-0.949 2.432-0.386 0.373 0.27 0.621 0.671 0.693 1.127 0.072 0.46-0.036 0.922-0.31 1.299L71.929 68.258l6.214 10.803c0.146 0.259 0.186 0.559 0.109 0.847-0.077 0.29-0.265 0.532-0.524 0.683-0.5 0.288-1.228 0.102-1.525-0.417l-2.793-4.845-1.701 0.004 3.214 5.576c0.464 0.804 1.326 1.301 2.249 1.301 0.457 0 0.905-0.119 1.292-0.346 0.601-0.346 1.031-0.905 1.211-1.575 0.18-0.669 0.09-1.37-0.257-1.969l-5.736-9.973 20.701-28.525C94.893 39.129 95.096 38.277 94.958 37.427z" fill="#ffffff" data-fill-palette-color="accent"></path><polygon points="32.731,60.553 23.24,61.55 22.408,55.235 32.092,54.219 34.124,52.521 20.747,53.927 21.966,63.169     33.871,61.917   " fill="#ffffff" data-fill-palette-color="accent"></polygon><path d="M82.272 39.426c-0.257-1.852-1.217-3.494-2.711-4.623-2.397-1.813-5.642-1.879-8.108-0.226l-0.085-0.084-6.823 6.657-7.15-9.642-4.88 3.061 8.066 14.712c0.557 0.882 1.422 1.495 2.444 1.723 0.122 0.022 0.254 0.048 0.378 0.062 1.17 0.142 2.319-0.252 3.159-1.074l8.358-8.156-1.03-1.056-8.358 8.157c-0.519 0.508-1.234 0.749-1.962 0.663-0.081-0.009-0.162-0.024-0.229-0.038-0.631-0.141-1.167-0.521-1.489-1.029l-7.376-13.453 2.545-1.597 7.345 9.904 7.244-7.071 0.235-0.194c1.985-1.619 4.791-1.678 6.825-0.139 1.177 0.891 1.938 2.187 2.141 3.648 0.203 1.462-0.178 2.917-1.069 4.095L67.714 59.623c-1.052 1.395-2.66 2.193-4.414 2.193-0.336 0-0.717-0.05-1.262-0.163l-18.03-2.286-0.56 0.06-2.03 1.694 2.572-0.267 17.797 2.253c0.588 0.127 1.066 0.187 1.512 0.187 2.219 0 4.257-1.013 5.591-2.778L80.92 44.614C82.049 43.121 82.528 41.279 82.272 39.426z" fill="#ffffff" data-fill-palette-color="accent"></path><path d="M56.405 59.899l0.882-1.182-8.895-6.626-11.501 9.607-4.073-4.881 13.424-11.213c1.136-0.942 2.753-0.987 3.938-0.107l9.18 6.844 1.204-1.587c-0.305-0.284-0.585-0.593-0.811-0.952l-0.136-0.245-0.551 0.727-8.005-5.971c-1.734-1.289-4.103-1.225-5.764 0.157L30.74 56.63l5.963 7.146 11.741-9.806L56.405 59.899z" fill="#ffffff" data-fill-palette-color="accent"></path></g></g></svg></g></svg></g><g></g></svg></g></svg></g></svg></g></svg></g><defs></defs></svg><rect width="512" height="320" fill="none" stroke="none" visibility="hidden"></rect></g></svg></g></svg>